<?xml version="1.0" standalone="no"?>
<!DOCTYPE svg PUBLIC "-//W3C//DTD SVG 20010904//EN"
 "http://www.w3.org/TR/2001/REC-SVG-20010904/DTD/svg10.dtd">
<svg version="1.0" xmlns="http://www.w3.org/2000/svg"
 width="700.000000pt" height="700.000000pt" viewBox="0 0 700.000000 700.000000"
 preserveAspectRatio="xMidYMid meet">
<metadata>
Created by potrace 1.14, written by Peter Selinger 2001-2017
</metadata>
<g transform="translate(0.000000,700.000000) scale(0.100000,-0.100000)"
fill="#000000" stroke="none">
<path d="M3387 4920 c-102 -32 -189 -115 -227 -218 -19 -50 -21 -74 -18 -192
3 -121 6 -141 29 -190 37 -78 87 -131 161 -171 60 -33 67 -34 168 -34 101 0
108 1 168 34 74 40 124 93 161 171 23 49 26 69 29 190 3 118 1 142 -18 192
-39 106 -121 184 -229 218 -78 25 -148 25 -224 0z"/>
<path d="M1928 2796 c-101 -36 -172 -100 -217 -196 -24 -51 -26 -65 -26 -200
0 -138 1 -148 28 -206 36 -77 104 -145 182 -181 l60 -28 1545 0 1545 0 60 28
c78 36 146 104 182 181 27 58 28 68 28 206 0 136 -2 149 -26 201 -36 76 -86
129 -161 170 l-63 34 -1550 2 c-1258 2 -1557 0 -1587 -11z"/>
</g>
</svg>
